<?xml version="1.0" encoding="utf-8"?>
<!-- Generator: Adobe Illustrator 26.0.3, SVG Export Plug-In . SVG Version: 6.00 Build 0)  -->
<svg version="1.0" id="Layer_1" xmlns="http://www.w3.org/2000/svg" xmlns:xlink="http://www.w3.org/1999/xlink" x="0px" y="0px"
	 viewBox="0 0 959 692.8" style="enable-background:new 0 0 959 692.8;" xml:space="preserve">
<style type="text/css">
	.st0{fill:#0064B0;}
	.st1{fill:#F58026;}
</style>
<path class="st0" d="M119,209.9c24.6-0.3,49.3-0.2,73.9,0c-0.1,46.5-0.1,92.9,0,139.4c0.1,9.9-0.3,19.8,0.3,29.6
	c1.1,7,2.2,14.3,6.7,20c3.8,5,9.6,8,15.7,9.2c3.2,0.8,6.4,1.4,9.6,1.7c6.9,1.2,13.8,0.6,20.8,0.6c9-1.3,19-1.9,26.3-8.1
	c5.2-4.1,7.3-10.7,9.1-16.8c0.1-5.6,1.5-11.2,1.3-16.9c0.1-53,0.1-105.9,0-158.9c24.4-0.1,48.8,0,73.2,0c0,56.7,0,113.3,0,170
	c-0.1,4.4,0.2,8.8-0.9,13c-0.3,5.2-1.1,10.4-2.5,15.4c-1.3,5.9-3.2,11.7-5.5,17.3c-5.8,13.8-15,25.9-26.9,35c-5.3,4-11,7.5-17,10.5
	c-4.1,1.7-8.1,3.6-12.4,5c-0.5,0.1-1.5,0.4-2,0.6c-5.1,1.4-10.1,3.2-15.3,3.9c-5,0.9-10.1,2-15.2,2.4c-10.4,0.5-20.9,0.2-31.3,0.3
	c-4.7-0.2-9.5,0.1-14.1-0.9c-6.2-0.8-12.3-2-18.3-3.5c-3.2-1-6.4-1.8-9.5-2.8c-2.5-1-5-1.9-7.5-2.9c-15.8-6.6-30.2-17.2-39.9-31.5
	c-7.3-10.3-11.9-22.3-14.8-34.5c-1.6-8.8-2.8-17.6-3.4-26.5C119,323.7,119.2,266.8,119,209.9 M372.8,209.8
	c69.4-0.1,138.8-0.1,208.2,0c-0.1,24.2-0.1,48.4,0,72.6c-22.5,0-45,0-67.5,0c-0.1,66.9-0.1,133.8,0,200.7c-24.4,0.1-48.9,0.1-73.3,0
	c0-66.6,0.1-133.2,0-199.8c-0.2-0.2-0.7-0.6-0.9-0.8c-22.1-0.2-44.3,0-66.4-0.1C372.9,258.1,372.9,233.9,372.8,209.8 M643.1,209.8
	c28-0.2,56.1-0.1,84.1,0c1.5,3.7,2.9,7.5,4.7,11c0.1,0.5,0.3,1.5,0.4,2c0.8,1.5,1.6,3,2.5,4.6c0.1,0.5,0.3,1.6,0.4,2.1
	c2,3.9,3.5,8.1,5.2,12.2c2.2,5.1,4.2,10.2,6.3,15.4c1,2.2,1.9,4.4,2.7,6.7c0.8,1.9,1.6,3.8,2.4,5.6c2.1,5.1,4.2,10.2,6.3,15.2
	c0.9,2.2,1.8,4.5,2.8,6.7c0.8,1.9,1.5,3.8,2.3,5.6c2,5.1,4.3,10.2,6.3,15.3c2.9,7,5.9,13.9,8.6,20.9c1.9,4.5,3.8,9.1,5.7,13.6
	c-24.5,0.1-48.9,0-73.3,0.1c-3.5-9.2-6.2-18.6-9.4-27.9c-2.4-7.4-5-14.7-7.3-22.1c-0.7-1.9-1.3-3.8-1.9-5.7
	c-1.9-5.9-4-11.8-5.8-17.7l-2-0.1c-1.4,6.1-3.8,11.9-5.7,17.9c-5.7,17.5-11.7,35-17.4,52.6c-0.5,1.1-0.7,3.2-2.4,3
	c-24,0.1-48.1,0-72.1,0c0.9-2,1.9-4,2.7-6c1.1-3,2.3-5.9,3.5-8.8c1-2.2,1.9-4.5,2.8-6.7c2.8-6.9,5.7-13.9,8.6-20.8
	c0.8-1.8,1.5-3.7,2.3-5.5c1-2.2,1.8-4.5,2.8-6.7c2.1-5.1,4.3-10.2,6.3-15.4c1.7-4.1,3.3-8.2,5.2-12.2l0.5-2c0.8-1.6,1.6-3.1,2.4-4.7
	c0.1-0.5,0.3-1.5,0.5-2c2.9-6.2,5.1-12.6,8.1-18.8c0.1-0.5,0.3-1.5,0.4-2.1l2.3-4.6c0.1-0.5,0.3-1.5,0.4-2
	C638.2,222.3,640.7,216.1,643.1,209.8 M585.3,349.6c19.6,14.9,39.1,29.8,58.6,44.8c-1,3.7-2.4,7.4-3.4,11.1c-1.1,2.8-2,5.7-2.8,8.6
	c-0.7,1.9-1.4,3.8-2.2,5.7c-0.2,0.9-0.4,1.9-0.6,2.9c-1.2,2.8-2.1,5.7-2.9,8.6c-0.7,1.9-1.5,3.8-2.2,5.6c-0.2,0.9-0.4,1.9-0.5,2.9
	c-2.2,5.6-4,11.4-5.8,17.1c-1.9,5-3.3,10.1-5.1,15.1c-0.1,0.5-0.4,1.5-0.5,2c-0.9,2.2-1.6,4.4-2.4,6.6c-0.1,0.6-0.3,1.9-0.5,2.5
	c-28.2,0.2-56.4,0.2-84.6,0c1.6-3.6,3.1-7.3,4.6-11c1.2-2.9,2.4-5.9,3.5-8.8c1-2.2,1.9-4.4,2.8-6.7c0.8-1.8,1.6-3.6,2.3-5.4
	c2-5.2,4.2-10.3,6.3-15.4c0.9-2.2,1.8-4.5,2.8-6.7c0.8-1.8,1.5-3.7,2.2-5.5c3.2-7.3,6.1-14.7,9.2-22.1c1.7-4.1,3.3-8.2,5.2-12.2
	c0.1-0.5,0.4-1.4,0.5-1.9c3-6.1,5.1-12.6,8.1-18.7c0.1-0.5,0.3-1.6,0.4-2.2c0.8-1.5,1.6-3,2.5-4.6l0.4-2
	C582.8,356.4,584.1,353,585.3,349.6 M726.4,394.3c19.5-14.9,39-29.8,58.5-44.7c2,5.7,4.5,11.2,6.8,16.8c1.2,2.9,2.4,5.8,3.6,8.7
	c1,2.2,1.9,4.5,2.8,6.8c0.8,1.8,1.5,3.6,2.3,5.4c2.9,7.4,6.2,14.7,9.1,22.1c0.9,2.2,1.8,4.5,2.8,6.7c0.7,1.9,1.5,3.7,2.3,5.5
	c3.8,9.2,7.5,18.4,11.4,27.5c0.9,2.3,1.8,4.6,2.9,6.8l0.5,2c3.8,8.3,7.1,16.8,10.7,25.2c-28.3,0.1-56.6,0.2-84.8,0
	c-0.1-0.6-0.3-1.9-0.5-2.5c-2.1-6-3.9-12.1-6.1-18c-0.7-2.6-1.6-5.2-2.5-7.7c-0.9-2.9-1.9-5.8-2.8-8.7c-1.8-5-3.2-10-5.1-14.9
	c-0.8-2.9-1.8-5.8-3-8.6c-0.2-1-0.3-2-0.5-2.9c-0.8-1.8-1.6-3.7-2.4-5.5c-0.2-1-0.3-2-0.4-3c-0.8-1.9-1.6-3.8-2.4-5.6
	c-0.2-1-0.3-2-0.5-3c-0.8-1.9-1.7-3.8-2.4-5.6c-0.1-0.9-0.1-1.7-0.2-2.6L726.4,394.3z"/>
<path class="st1" d="M683.7,312.8c-0.3-2.4,0.2-4.8,1.4-6.9c0.6,2.1,1.6,4.1,2.2,6.2c4.7,14.3,9.3,28.7,13.9,43
	c0.4,1.5,1.3,2.5,2.9,2.2c14.2,0,28.3,0.2,42.5-0.1l0.9,2.3c-6.9-0.2-13.8-0.1-20.6,0.1c-8.8,0.9-17.6,0.3-26.5,0.8
	c-4.4,6.5-9.7,12.4-13.8,19.1c2-0.4,4.1-0.9,6.1-1.5c13.8-4.9,27.8-9.1,41.7-13.8c4.6-1.5,9.2-3.5,14.1-3.8
	c-0.4-1.1-0.8-2.1-1.1-3.2c2.8,0.1,5.6,0.2,8.4,0.4c-2.2,2.2-4.6,4.1-7.2,5.8c-11.9,8.6-23.7,17.3-35.7,25.9
	c0.3,2.6,0.9,5.1,1.9,7.5c4.9,14.8,9.5,29.8,14.6,44.5c-15-10.2-29.4-21.3-44.2-31.8c-14.6,10.3-28.8,21.3-43.6,31.4
	c3-11.3,7-22.3,10.5-33.5c1.7-6.1,4.3-11.9,5.3-18.1c-12.2-8.7-24.2-17.6-36.4-26.4c-2.4-1.5-4.6-3.3-6.6-5.3
	c17.9-0.4,35.8,0,53.8-0.2c0.2-0.6,0.7-1.8,1-2.3c1.9-6.8,4.4-13.4,6.4-20.1c2.8-7.7,4.8-15.6,7.8-23.2c0.1,1.1,0.3,3.2,0.4,4.3
	c-4.2,14-8.5,27.9-12.4,42c-0.8,2.3,1.1,4.1,2.2,5.9c3.8,5.1,7.2,10.6,11.3,15.5c0.2-19.9-0.1-39.7,0.1-59.6
	C684.8,317.4,685,314.9,683.7,312.8 M621.2,360.9c12.5,8.1,24.6,16.8,36.9,25.2c2.4,1.8,5.5,0.8,8,0.1c4.9-1.6,9.8-3,14.7-4.5
	c0.1-0.6,0.2-1.7,0.3-2.3c-10-2.7-19.6-6.4-29.5-9.2C641.5,367.1,631.6,363.2,621.2,360.9 M685.9,381.7
	c12.2,16.5,24.5,32.9,36.2,49.6l1.9,0.6c-4.2-13-9.2-25.7-13.5-38.6c-0.7-2-1.4-4.6-3.9-5C699.8,386.1,693.1,383.2,685.9,381.7
	 M677.9,390.9c-10.5,14.7-21.2,29.3-31.7,44.1c13.1-9.3,25.6-19.4,38.4-29.2c-0.1-8.2,0.3-16.5,0-24.7
	C682.6,384.4,680.3,387.7,677.9,390.9L677.9,390.9z"/>
</svg>
